<svg width="10" height="10" viewBox="0 0 10 10" fill="none" xmlns="http://www.w3.org/2000/svg">
<path d="M9.00005 0.670765C9.3964 1.06712 9.3964 1.71048 9.00005 2.10683L6.27152 4.83536L9.00005 7.5639C9.19048 7.75433 9.29747 8.01262 9.29747 8.28193C9.29747 8.55125 9.19048 8.80953 9.00005 8.99997C8.80961 9.1904 8.55133 9.29739 8.28202 9.29739C8.0127 9.29739 7.75442 9.1904 7.56398 8.99997L4.83545 6.27143L2.10692 8.99997C1.91648 9.1904 1.6582 9.29739 1.38888 9.29739C1.11957 9.29739 0.861284 9.1904 0.670849 8.99997C0.480414 8.80953 0.373429 8.55125 0.373429 8.28193C0.373429 8.01262 0.480414 7.75433 0.670849 7.5639L3.39938 4.83536L0.670849 2.10683C0.480414 1.9164 0.373429 1.65811 0.373429 1.3888C0.37343 1.11948 0.480414 0.861199 0.670849 0.670765C0.861284 0.48033 1.11957 0.373345 1.38888 0.373345C1.6582 0.373345 1.91648 0.48033 2.10692 0.670765L4.83545 3.3993L7.56398 0.670765C7.96034 0.27441 8.60369 0.27441 9.00005 0.670765Z" fill="#071427"/>
</svg>
